<svg xmlns="http://www.w3.org/2000/svg" viewBox="0 0 480 64">
<path fill="#34a853" d="M45.56,41.14,42.34,38l-9,8.75A7.25,7.25,0,0,0,30.31,46a7.39,7.39,0,0,0-3.11.62,7.3,7.3,0,0,0-2.54,1.86,7,7,0,0,0,.4,9.59,7.33,7.33,0,0,0,10.21,0,7.06,7.06,0,0,0,2-3.86,7,7,0,0,0-.66-4.28ZM32,54.89a2.6,2.6,0,0,1-1.53.74,2.67,2.67,0,0,1-1.66-.33A2.59,2.59,0,0,1,27.72,54a2.56,2.56,0,0,1-.09-1.66,2.5,2.5,0,0,1,.67-1.18,2.42,2.42,0,0,1,1.86-.72,2.67,2.67,0,0,1,1.47.44,2.55,2.55,0,0,1,.4,4Z" />
<path fill="#4285f4" d="M57.61,26.15a7.32,7.32,0,0,0-8.32-1.33L40.38,16.1l-3.24,3.16L46.05,28a6.3,6.3,0,0,0-.51,1.33,6.92,6.92,0,0,0,.31,4.53,7.09,7.09,0,0,0,3,3.42,7.36,7.36,0,0,0,4.55.88,7.23,7.23,0,0,0,4.16-2,6.94,6.94,0,0,0,0-10ZM54.38,33a2.7,2.7,0,0,1-1.87.75A2.66,2.66,0,0,1,50.65,33,2.73,2.73,0,0,1,50,31.83a2.54,2.54,0,0,1,0-1.34,2.47,2.47,0,0,1,.67-1.17,2.57,2.57,0,0,1,.85-.56,2.68,2.68,0,0,1,1-.17A2.75,2.75,0,0,1,54,29a2.61,2.61,0,0,1,1,1.16,2.54,2.54,0,0,1,.15,1.49A2.68,2.68,0,0,1,54.38,33Z" />
<path fill="#ea4335" d="M35.27,4.29A7.32,7.32,0,0,0,32,2.46a7.31,7.31,0,0,0-7,1.83A7,7,0,0,0,23.2,7.47a6.89,6.89,0,0,0,.49,5l-8.9,8.72L18,24.32l8.9-8.72a7.31,7.31,0,0,0,8.34-1.31,7,7,0,0,0,0-10ZM32,11.12a2.7,2.7,0,0,1-1.87.75,2.66,2.66,0,0,1-1.86-.75A2.7,2.7,0,0,1,27.63,10a2.58,2.58,0,0,1,0-1.35,2.47,2.47,0,0,1,.67-1.17,2.4,2.4,0,0,1,.85-.55,2.34,2.34,0,0,1,1-.17,2.74,2.74,0,0,1,1.47.43,2.67,2.67,0,0,1,1,1.16,2.58,2.58,0,0,1,.15,1.5A2.54,2.54,0,0,1,32,11.12Z" />
<path fill="#fbbc05" d="M23.21,43.06l-8.94-8.75A7,7,0,0,0,14,27.43,7.2,7.2,0,0,0,11.33,25a7.36,7.36,0,0,0-7.91.57A7,7,0,0,0,.85,29.32a6.87,6.87,0,0,0,.1,4,7,7,0,0,0,2.29,3.3A7.3,7.3,0,0,0,7,38.16a7.41,7.41,0,0,0,4-.69l9,8.76ZM6,33a2.73,2.73,0,0,1-.67-1.18,2.54,2.54,0,0,1,0-1.34A2.47,2.47,0,0,1,6,29.32a2.54,2.54,0,0,1,.85-.55,2.91,2.91,0,0,1,1-.18,2.72,2.72,0,0,1,1.25.31,2.65,2.65,0,0,1,1,.84,2.56,2.56,0,0,1,.43,1.19,2.51,2.51,0,0,1-.19,1.24,2.6,2.6,0,0,1-.76,1,2.67,2.67,0,0,1-1.16.53A2.69,2.69,0,0,1,6,33Z" />
<path fill="#202124" d="M260.37,43.71a16.33,16.33,0,0,1-28-11.54,16,16,0,0,1,16.32-16.26,15.65,15.65,0,0,1,11.62,4.75A15.87,15.87,0,0,1,263.88,26a15.6,15.6,0,0,1,1.17,6.22A15.78,15.78,0,0,1,260.37,43.71ZM240.09,41.1a12.42,12.42,0,0,0,17.26,0,12,12,0,0,0,3.54-8.93,12,12,0,0,0-3.54-8.93,12.39,12.39,0,0,0-17.26,0,12,12,0,0,0-3.53,8.93A12.18,12.18,0,0,0,240.09,41.1Zm39.83,7.33a9.23,9.23,0,0,1-4.47-1,7.33,7.33,0,0,1-2.95-2.62h-.17l.17,3v9.37h-4.09V26.43h3.92v2.95h.17a7.59,7.59,0,0,1,2.95-2.61,9.49,9.49,0,0,1,4.47-1.05A9.65,9.65,0,0,1,287.2,29a11.31,11.31,0,0,1,3.05,8.08,11.35,11.35,0,0,1-3.05,8.08A9.71,9.71,0,0,1,279.92,48.43Zm-.66-3.67a6.59,6.59,0,0,0,4.89-2.1,7.68,7.68,0,0,0,2-5.57,7.68,7.68,0,0,0-2-5.57,6.59,6.59,0,0,0-4.89-2.1,6.46,6.46,0,0,0-4.89,2.07,7.69,7.69,0,0,0-2,5.6,7.69,7.69,0,0,0,2,5.6,6.46,6.46,0,0,0,4.89,2.07Zm24,3.67a10.57,10.57,0,0,1-8-3.23,11.26,11.26,0,0,1-3.09-8.11,11.76,11.76,0,0,1,3-8,9.73,9.73,0,0,1,7.66-3.36,10.06,10.06,0,0,1,7.73,3.09,11.58,11.58,0,0,1,2.91,8.25l0,.74H296.28a7.3,7.3,0,0,0,2.19,5.1,6.56,6.56,0,0,0,2.16,1.39,6.74,6.74,0,0,0,2.55.47c2.91,0,4.92-1.22,6-3.66l3.64,1.49a9.33,9.33,0,0,1-3.5,4.14A10.43,10.43,0,0,1,303.28,48.43Zm5.83-13.92a5.63,5.63,0,0,0-1.7-3.46,6.19,6.19,0,0,0-4.68-1.67,6,6,0,0,0-3.92,1.4,7.08,7.08,0,0,0-2.29,3.73Zm11.4-8.08v2.95h.17a7.2,7.2,0,0,1,2.81-2.58,8.25,8.25,0,0,1,4.09-1.05,7.72,7.72,0,0,1,6.17,2.45,9.54,9.54,0,0,1,2.12,6.51v13h-4.09V35.29c0-3.94-1.81-5.91-5.38-5.91a5.11,5.11,0,0,0-2.3.5,5,5,0,0,0-1.82,1.47,7.06,7.06,0,0,0-1.6,4.59V47.72h-4.09V26.43Zm39.14,22a12,12,0,0,1-6.76-2.21A10.34,10.34,0,0,1,348.55,40l3.75-1.49A8.21,8.21,0,0,0,355,42.83a6.86,6.86,0,0,0,4.64,1.76,7.39,7.39,0,0,0,4.54-1.36,4.24,4.24,0,0,0,1.41-1.62,4.17,4.17,0,0,0,.46-2.08,4.68,4.68,0,0,0-1.87-4,19.81,19.81,0,0,0-6-2.62,16.19,16.19,0,0,1-6.38-3.36,6.93,6.93,0,0,1-1.66-2.42,6.74,6.74,0,0,1-.52-2.87,7.7,7.7,0,0,1,2.7-5.84,10,10,0,0,1,7.07-2.48,10.19,10.19,0,0,1,6.56,2,9.47,9.47,0,0,1,3.29,4.31l-3.75,1.53a5.5,5.5,0,0,0-2-2.75,6.2,6.2,0,0,0-4.06-1.26,6.5,6.5,0,0,0-4,1.29,4.1,4.1,0,0,0-1.22,1.4,3.88,3.88,0,0,0-.44,1.79,3.57,3.57,0,0,0,1.52,2.92,14.49,14.49,0,0,0,4.51,2.14c1.56.51,2.88,1,3.92,1.43A21.05,21.05,0,0,1,367,32.54a7.41,7.41,0,0,1,2.42,2.85,9,9,0,0,1,.83,4,8.12,8.12,0,0,1-1,4,7.38,7.38,0,0,1-2.53,2.82,13.32,13.32,0,0,1-3.39,1.6A11.45,11.45,0,0,1,359.65,48.43ZM375.87,29a10.66,10.66,0,0,1,8-3.23A10.81,10.81,0,0,1,392,29a11,11,0,0,1,3.16,8.11A11.09,11.09,0,0,1,392,45.2a10.66,10.66,0,0,1-8,3.23,10.81,10.81,0,0,1-8-3.23,11.06,11.06,0,0,1-3.15-8.11A11.07,11.07,0,0,1,375.87,29Zm3,13.68a7,7,0,0,0,10,0A7.45,7.45,0,0,0,391,37.09a7.45,7.45,0,0,0-2.11-5.57A6.88,6.88,0,0,0,386.59,30a7,7,0,0,0-7.7,1.55,7.42,7.42,0,0,0-2.12,5.57A7.57,7.57,0,0,0,378.89,42.66Zm38.19,5.06h-3.91v-3H413a7.43,7.43,0,0,1-2.84,2.58,8.18,8.18,0,0,1-4,1.06,7.74,7.74,0,0,1-6.2-2.45,9.56,9.56,0,0,1-2.12-6.52v-13h4.09V38.82c0,4,1.8,5.94,5.38,5.94a5.13,5.13,0,0,0,2.31-.51,5,5,0,0,0,1.81-1.49A7,7,0,0,0,413,38.14V26.43h4.09Zm8.46,0h-4.09V26.43h3.92v3.46h.17A5.38,5.38,0,0,1,428.11,27a7.37,7.37,0,0,1,3.74-1.12,7.93,7.93,0,0,1,3,.51l-1.56,3.73a6.19,6.19,0,0,0-2.18-.3,5.35,5.35,0,0,0-3.92,1.73,6.09,6.09,0,0,0-1.7,4.48Zm20.07.71a10.83,10.83,0,0,1-8-3.23,11.06,11.06,0,0,1-3.15-8.11A11.12,11.12,0,0,1,437.57,29a10.68,10.68,0,0,1,8-3.23,10,10,0,0,1,6,1.73,10.15,10.15,0,0,1,3.51,4.38l-3.75,1.53a6.1,6.1,0,0,0-6.06-4,6.42,6.42,0,0,0-4.79,2.18,7.72,7.72,0,0,0-2.08,5.53,7.72,7.72,0,0,0,2.08,5.53,6.42,6.42,0,0,0,4.79,2.18,6.3,6.3,0,0,0,6.3-4l3.64,1.53a9.86,9.86,0,0,1-3.84,4.56A10.21,10.21,0,0,1,445.61,48.43Zm22.26,0a10.59,10.59,0,0,1-8-3.23,11.25,11.25,0,0,1-3.08-8.11,11.66,11.66,0,0,1,3-8,9.79,9.79,0,0,1,3.43-2.54,9.89,9.89,0,0,1,4.23-.82,10.07,10.07,0,0,1,7.73,3.09,11.58,11.58,0,0,1,2.91,8.25l0,.74H460.87a7.25,7.25,0,0,0,2.18,5.1,6.51,6.51,0,0,0,2.17,1.39,6.66,6.66,0,0,0,2.54.47c2.92,0,4.93-1.22,6-3.66l3.64,1.49a9.35,9.35,0,0,1-3.51,4.14A10.25,10.25,0,0,1,467.87,48.43Zm5.86-13.92a5.73,5.73,0,0,0-1.7-3.46,6.19,6.19,0,0,0-4.68-1.67,6,6,0,0,0-3.92,1.4,7.08,7.08,0,0,0-2.29,3.73Zm-396.2-3.9C77.53,20.76,86,12.78,96,12.78A17.87,17.87,0,0,1,102.75,14a17.37,17.37,0,0,1,5.73,3.7L105,21.13a12.69,12.69,0,0,0-9-3.49,12.94,12.94,0,1,0,0,25.87,12.29,12.29,0,0,0,9.19-3.57,10,10,0,0,0,2.7-6.11H96V29h16.75A15.59,15.59,0,0,1,113,32c0,3.67-1,8.18-4.29,11.37A17,17,0,0,1,96,48.4C86,48.4,77.53,40.42,77.53,30.61Zm49-5.13A11.48,11.48,0,1,0,138.26,37,11.42,11.42,0,0,0,126.51,25.48Zm0,18.4a6.7,6.7,0,0,1-6.62-7,6.62,6.62,0,1,1,13.23,0A6.68,6.68,0,0,1,126.51,43.88Zm25.65-18.4A11.48,11.48,0,1,0,163.91,37,11.42,11.42,0,0,0,152.16,25.48Zm0,18.4a6.7,6.7,0,0,1-6.62-7,6.62,6.62,0,1,1,13.23,0A6.68,6.68,0,0,1,152.16,43.88Zm31.48-17.72V28h-.18a8.11,8.11,0,0,0-6.17-2.58,11.48,11.48,0,0,0,0,23,8,8,0,0,0,6.17-2.62h.18v1.66c0,4.38-2.4,6.73-6.24,6.73a6.45,6.45,0,0,1-5.9-4.08L167,51.93a11.08,11.08,0,0,0,4.14,5,11.35,11.35,0,0,0,6.26,1.84c6,0,11.13-3.47,11.13-11.95V26.16Zm-5.9,17.72A6.66,6.66,0,0,1,171.23,37a6.72,6.72,0,0,1,6.51-7c3.54,0,6.24,2.95,6.24,7S181.24,43.88,177.74,43.88ZM197.23,14H192.1V47.72h5.13Zm14.1,29.88a6,6,0,0,1-5.68-3.46l15.66-6.35-.52-1.29c-1-2.58-3.95-7.3-10-7.3S199.72,30.13,199.72,37a11.35,11.35,0,0,0,11.61,11.48,12,12,0,0,0,5.54-1.35,11.58,11.58,0,0,0,4.24-3.74l-4-2.62A6.77,6.77,0,0,1,211.33,43.88Zm-.38-14a4.47,4.47,0,0,1,4.33,2.45l-10.47,4.24A6.37,6.37,0,0,1,211,29.89Z"/>
</svg>
